<svg xmlns="http://www.w3.org/2000/svg" viewBox="0 0 200.646 122.304"><defs><style>.a,.b{fill:#212827;}.b{opacity:0.15;}</style></defs><g transform="translate(-14.303 450.392)"><path class="a" d="M44.115-.68,58.99-36.21,62.135,0H75.31L69.785-59.5H56.525L39.865-19.465,23.2-59.5H9.945L4.42,0H17.595L20.74-36.21,35.615-.68ZM99.96,0V-20.995h12.92c12.24,0,19.125-8.585,19.125-19.04S125.205-59.5,112.88-59.5h-26.1V0Zm0-31.365v-17.68h11.22c4.675,0,7.565,3.655,7.565,8.925,0,5.1-2.89,8.755-7.565,8.755Zm30.26,24.99c0,4.165,3.4,7.31,7.99,7.31,4.505,0,8.075-3.145,8.075-7.31,0-4.25-3.57-7.48-8.075-7.48C133.62-13.855,130.22-10.625,130.22-6.375Z" transform="translate(24 -367.97)"/><path class="b" d="M304.342,128.08a2.846,2.846,0,0,1-.922.288c-.4,0-.922-.346-1.21-.173-1.325.749-2.824-.173-4.092.519a1.431,1.431,0,0,1-.519.058l-4.495.173c-1.844.058-3.688-.058-5.532.058-2.075.115-4.092.346-6.166.519-1.441.115-2.881.231-4.264.346h-.23c-.98.231-1.959.461-2.881.749-.115,0-.173.058-.288.058-1.786.23-3.515.461-5.3.807-1.21.231-2.363.576-3.573.807-.864.173-1.729.173-2.651.346-.749.173-1.5.4-2.305.576-3.054.749-6.108,1.441-9.163,2.247-1.614.4-3.169.922-4.725,1.383-2.42.692-4.783,1.383-7.2,2.132-1.959.576-3.919,1.21-5.878,1.844-2.939,1.037-5.878,2.075-8.817,3.169-1.9.692-3.746,1.441-5.59,2.305-2.19.98-4.322,2.132-6.454,3.169-1.383.634-2.708,1.268-4.092,1.9-1.21.576-2.478,1.21-3.688,1.786-2.536,1.268-5.071,2.536-7.664,3.746-2.017.98-4.149,1.786-6.224,2.708a10.6,10.6,0,0,1-5.647.692,2.837,2.837,0,0,1-.98-.346c-.634-.4-1.095-.23-1.614.346-2.075,2.132-4.207,4.207-6.281,6.339a14.476,14.476,0,0,0-1.441,1.844c-1.5,2.19-2.939,4.38-4.437,6.569-.749,1.095-1.556,2.075-2.247,3.169-.461.692-.864,1.383-1.325,2.075-1.383,2.247-2.824,4.553-4.207,6.8-1.325,2.247-2.593,4.495-3.919,6.742-1.614,2.651-3.227,5.359-4.841,8.01-1.037,1.729-2.075,3.458-3.169,5.186a2.161,2.161,0,0,1-2.305,1.21c-.692-.115-1.383-.288-1.614-.864a2.017,2.017,0,0,1,.288-1.614c1.21-1.959,2.593-3.8,3.861-5.705.807-1.268,1.614-2.536,2.363-3.8.864-1.441,1.729-2.939,2.651-4.322.288-.461.807-.864,1.095-1.325q1.383-2.42,2.593-4.841c.461-.922.692-2.075,1.383-2.708,1.153-1.095,1.268-2.708,2.305-3.8a10.36,10.36,0,0,0,1.383-2.766c.519-1.037,1.037-2.075,1.556-3.054a11.634,11.634,0,0,0,.807-1.729,4.741,4.741,0,0,1,.692-1.441,13.032,13.032,0,0,0,1.268-2.536,16.119,16.119,0,0,1,2.363-4.38,6.623,6.623,0,0,0,.807-2.19,6.407,6.407,0,0,1,1.441-2.766,5.208,5.208,0,0,0,1.556-3.976c-1.037.576-2.017,1.095-2.939,1.671l-4.668,2.939c-1.729,1.037-3.515,2.017-5.186,3.112-2.824,1.844-5.705,3.746-8.471,5.647-2.536,1.786-5.071,3.63-7.549,5.475-1.037.749-2.075,1.614-3.112,2.363a2.047,2.047,0,0,1-2.708-.864,1.16,1.16,0,0,1,.576-1.325c1.844-1.383,3.688-2.824,5.59-4.207,2.017-1.5,4.092-2.939,6.108-4.322,2.075-1.441,4.207-2.824,6.281-4.207,1.325-.864,2.593-1.786,3.919-2.651,2.19-1.383,4.437-2.708,6.627-4.092a6.868,6.868,0,0,1,1.153-.461c.519-.288,1.095-.576,1.614-.922.98-.634,1.9-1.325,2.824-2.017a2.192,2.192,0,0,1,.864-.288,1.78,1.78,0,0,0,1.268-1.21c-5.129-.634-9.566-2.19-11.583-7.664-.807.749-1.441,1.383-2.075,1.959-1.441,1.325-2.881,2.593-4.38,3.919-1.153,1.037-2.363,1.959-3.515,3a4.353,4.353,0,0,1-5.129.692.985.985,0,0,0-.807,0,2.73,2.73,0,0,1-3.573-.4c-.749-.692-.4-2.939.576-3.285a4.279,4.279,0,0,0,2.766-2.42.733.733,0,0,1,.519-.4c1.095,0,2.19.058,3.285.115.519.058.749.346.749.922,0,.4.058.807.058,1.441.461-.4.749-.692,1.095-.98,1.959-1.729,3.919-3.4,5.82-5.244a63.43,63.43,0,0,0,8.932-10.315,9.87,9.87,0,0,1,1.153-1.556c1.21-1.268,1.21-1.21,2.881-1.268A2.268,2.268,0,0,1,175.834,129a2.439,2.439,0,0,1-.864,2.017,24.316,24.316,0,0,0-2.19,2.651c-.519.692-.98,1.383-1.5,2.075a6.291,6.291,0,0,1-.749.98c-2.075,2.651-.749,5.647,1.037,7.376a8.192,8.192,0,0,0,4.668,1.9c.692.115,1.383.115,2.075.23.634.115.922-.115,1.21-.692a12.856,12.856,0,0,1,1.153-1.9c.058-.115.231-.173.231-.288.4-1.614,1.614-2.824,2.363-4.322.576-1.21,1.21-2.42,1.844-3.63l2.075-3.631c1.095-1.844,2.19-3.746,3.285-5.59.576-.922,1.21-1.844,1.729-2.766.461-.807.807-1.786,1.325-2.536,1.21-1.844,2.478-3.573,3.746-5.417.634-.922,1.153-1.844,1.786-2.708,1.153-1.671,2.363-3.4,3.573-5.071a1.167,1.167,0,0,1,.807-.461,2.6,2.6,0,0,1,2.247,1.383,2.467,2.467,0,0,1-.749,2.19c-1.095,1.21-2.132,2.42-3.112,3.688s-1.786,2.651-2.651,4.034c-1.037,1.614-2.075,3.169-3.112,4.783-.98,1.556-1.9,3.112-2.824,4.668-1.441,2.42-2.824,4.841-4.207,7.261-1.5,2.593-3,5.129-4.495,7.722a18.054,18.054,0,0,0-.864,1.844l.173.173a10.7,10.7,0,0,0,1.095-.634c2.42-1.556,4.9-3.169,7.319-4.783A14.024,14.024,0,0,0,193.7,138.4c.98-1.037,2.305-1.441,3.4-2.247,1.153-.864,2.363-1.556,3.573-2.42,1.325-.922,2.651-1.9,3.919-2.939,1.844-1.441,3.688-2.939,5.417-4.495a17.28,17.28,0,0,1,2.824-2.132c1.959-1.21,3.4-3.054,5.071-4.553.922-.864,1.9-1.671,2.824-2.536.346-.346.692-.749,1.037-1.153.115-.173.231-.4.346-.461a24.65,24.65,0,0,0,4.034-4.092c.4-.461.864-.922,1.21-1.383,1.153-1.556,2.305-3.112,3.458-4.725.922-1.268,1.786-2.478,2.651-3.746a11.275,11.275,0,0,0,2.132-5.475,1.39,1.39,0,0,0-1.037-1.671,19.9,19.9,0,0,0-4.092-.864,28.2,28.2,0,0,0-10.892,1.9,63.032,63.032,0,0,0-6.742,2.651,71.37,71.37,0,0,0-6.8,3.861c-1.844,1.21-3.631,2.536-5.417,3.919A30.189,30.189,0,0,0,195.2,111.6l-.346.519a.634.634,0,0,1-1.095-.231,9.121,9.121,0,0,1-.519-1.786,1.212,1.212,0,0,1,.288-.864,28.436,28.436,0,0,1,5.071-5.763,39.75,39.75,0,0,1,3.919-3.054c1.268-.922,2.708-1.614,3.976-2.536a32.818,32.818,0,0,1,6.4-3.515,56.818,56.818,0,0,1,9.393-3.285,23.707,23.707,0,0,1,9.451-.807,14.647,14.647,0,0,1,5.59,2.132,4.606,4.606,0,0,1,1.556,5.244,19.269,19.269,0,0,1-3,5.82c-.98,1.21-1.729,2.651-2.708,3.861-1.383,1.786-2.824,3.515-4.264,5.244-1.5,1.729-3,3.458-4.553,5.129-.749.807-1.671,1.556-2.478,2.305-2.017,1.9-4.034,3.8-6.108,5.647-.749.634-1.614,1.21-2.363,1.786-.461.346-.864.634-1.325.98-2.42,1.959-4.841,3.919-7.319,5.82-1.959,1.5-4.034,2.824-5.993,4.264-.98.692-1.9,1.5-2.881,2.132-1.21.807-2.42,1.5-3.63,2.305-.519.346-.98.749-1.5,1.153a.437.437,0,0,1,.115.231c.864-.231,1.729-.4,2.593-.634,3-.692,5.936-1.383,8.932-2.075,1.153-.288,2.247-.692,3.4-.864a22.151,22.151,0,0,1,2.766,0c.4.519.23.864-.23,1.21a10.677,10.677,0,0,1-4.783,2.19c-.864.23-1.729.576-2.651.807-2.363.634-4.783,1.21-7.088,1.959a60.677,60.677,0,0,1-10.085,2.247,5.722,5.722,0,0,0-4.38,3.227c-1.153,2.363-2.363,4.725-3.573,7.088-.346.692-.634,1.325-.98,2.017a.886.886,0,0,0,1.21,0,9.4,9.4,0,0,0,1.153-.98c.98-1.095,2.017-2.132,2.939-3.285a4.5,4.5,0,0,0,.634-1.153c.576-1.383,2.536-1.9,3.342-.692,1.268,1.786,2.824,1.268,4.322.807a35.686,35.686,0,0,0,4.668-1.844,70.341,70.341,0,0,0,8.01-3.515c1.095-.634,2.363-1.095,3.515-1.671,1.9-.98,3.8-2.075,5.763-3.112a5.521,5.521,0,0,1,1.844-.692,5.964,5.964,0,0,0,2.708-1.153,14.868,14.868,0,0,1,1.844-1.037c1.268-.4,2.42-1.21,3.8-1.153a.44.44,0,0,0,.288-.115c1.325-1.153,3.054-1.441,4.61-2.132,1.729-.749,3.515-1.325,5.3-1.9a5.043,5.043,0,0,1,.922-.115,15.989,15.989,0,0,0,1.5-.576,2.979,2.979,0,0,1,.749-.346c2.651-.749,5.359-1.5,8.01-2.305.461-.115.864-.519,1.383-.634,1.671-.461,3.342-.807,4.956-1.21.864-.231,1.671-.576,2.536-.807a20.6,20.6,0,0,1,2.708-.634c.691-.058,1.325-.115,2.017-.173a5.416,5.416,0,0,0,2.42-.634,10.294,10.294,0,0,1,3.054-.692c1.21-.288,2.363-.576,3.573-.807,2.363-.461,4.668-.922,7.031-1.383.576-.115,1.153.115,1.729.058.519,0,1.21.058,1.556-.23a4.363,4.363,0,0,1,2.305-.634,111.591,111.591,0,0,1,13.139-.749c3.342,0,6.685-.115,10.085-.173.4,0,.807.115,1.21.115a2.856,2.856,0,0,0,1.21,0,8.993,8.993,0,0,1,3.919.058,17.768,17.768,0,0,0,3.054.173c.692.058,1.383.058,2.017.115.173,0,.4.288.346.346-.058.173-.173.461-.346.519a5.043,5.043,0,0,1-.922.115,9.773,9.773,0,0,0-1.268.231c-.115,0-.231.115-.288.058-.922-.519-1.786.058-2.708,0a9.336,9.336,0,0,0-2.305.519c0-.173.058-.346.115-.749a8.208,8.208,0,0,1-.634.692A1.137,1.137,0,0,1,304.342,128.08Z" transform="translate(-97.24 -540.501)"/><path class="b" d="M104.634,144.649c.692-.519,1.21-.864,1.671-1.268,1.614-1.383,3.285-2.824,4.9-4.264,1.21-1.095,2.305-2.305,3.458-3.458.922-.864,1.9-1.671,2.766-2.593l7.261-7.261c1.383-1.325,2.766-2.651,4.092-4.034,2.075-2.132,4.092-4.322,6.166-6.454.807-.864,1.671-1.614,2.42-2.536,1.671-2.017,3.227-4.092,4.841-6.108,2.881-3.688,5.82-7.376,8.644-11.122a38.848,38.848,0,0,1,4.495-4.725c.864-.807,1.729-.115,2.536.288a1.363,1.363,0,0,1,.922,1.614,1.52,1.52,0,0,1-.4.922c-1.556,1.268-2.536,3.054-3.8,4.61-1.671,2.017-3.342,3.976-5.014,5.993-1.037,1.268-2.132,2.593-3.169,3.861-2.075,2.536-4.207,5.071-6.224,7.607a42.134,42.134,0,0,0-2.478,3.746c-.634.98-1.325,1.9-1.959,2.881-.749,1.153-1.441,2.363-2.132,3.515-1.325,2.132-2.651,4.264-3.919,6.4-.864,1.383-1.614,2.881-2.42,4.264-1.037,1.9-2.132,3.746-3.169,5.647-.288.519-.461,1.153-.749,1.671-.98,2.017-2.017,4.034-3.054,6.051-.692,1.383-1.383,2.766-2.017,4.149-.922,1.844-1.844,3.63-2.708,5.475-.98,2.132-1.9,4.264-2.824,6.4-.864,1.959-1.729,3.919-2.593,5.82-.519,1.153-1.153,2.247-1.614,3.4s-.864,2.363-1.325,3.515c-.634,1.614-1.325,3.169-2.017,4.725-.807,1.844-1.614,3.688-2.363,5.532-.749,1.729-1.556,3.515-2.247,5.3-.692,1.729-1.325,3.515-1.9,5.3-.864,2.824-1.729,5.705-2.536,8.586-.231.807-.288,1.671-.461,2.536a9.214,9.214,0,0,1-.288,1.21.861.861,0,0,1-1.095.692,15.184,15.184,0,0,0-1.614-.115.938.938,0,0,1-.864-1.153,23.875,23.875,0,0,1,1.153-5.705c.288-.922.519-1.844.807-2.766.519-1.671,1.037-3.4,1.671-5.071.864-2.42,1.729-4.841,2.708-7.2,1.268-3.112,2.708-6.224,4.034-9.336.576-1.325,1.153-2.708,1.729-4.092.922-2.19,1.844-4.437,2.824-6.627,1.556-3.63,3.112-7.319,4.783-10.949,1.325-2.881,2.766-5.763,4.149-8.586.864-1.844,1.786-3.631,2.651-5.475.98-1.959,1.959-3.919,3-5.878,1.556-2.881,3.112-5.705,4.668-8.529.576-1.037,1.095-2.075,1.671-3.112-.058-.058-.115-.115-.173-.115l-1.9,1.729c-3.054,2.939-6.051,5.936-9.105,8.875-.864.864-1.671,1.786-2.593,2.593-2.075,1.9-4.149,3.861-6.4,5.59a7.609,7.609,0,0,1-2.881,1.268c-1.614.346-2.651-.749-3.515-1.9a20.218,20.218,0,0,1-1.037-1.959c-.346.346-.634.576-.922.922-1.037,1.268-2.017,2.593-3.112,3.8a12.139,12.139,0,0,1-2.19,2.017,2.394,2.394,0,0,1-2.478.058c-.4-.231-.634-.98-.807-1.556-.173-.519.288-.692.692-.98a8.25,8.25,0,0,0,1.844-1.614q3.025-3.544,5.878-7.261c.98-1.268,1.844-2.651,2.708-3.976a2.49,2.49,0,0,1,2.305-1.21c.692,0,1.383-.058,1.786.692a2.624,2.624,0,0,1,0,2.363c-.346.98-.519,2.017-.807,3.054a8.959,8.959,0,0,1-.461,1.325A10.688,10.688,0,0,0,104.634,144.649Z" transform="translate(-76.233 -540.646)"/></g></svg>