<?xml version="1.0" standalone="no"?>
<!DOCTYPE svg PUBLIC "-//W3C//DTD SVG 20010904//EN"
 "http://www.w3.org/TR/2001/REC-SVG-20010904/DTD/svg10.dtd">
<svg version="1.0" xmlns="http://www.w3.org/2000/svg"
 width="256.000000pt" height="256.000000pt" viewBox="0 0 256.000000 256.000000"
 preserveAspectRatio="xMidYMid meet">
<metadata>
Created by potrace 1.11, written by Peter Selinger 2001-2013
</metadata>
<g transform="translate(0.000000,256.000000) scale(0.100000,-0.100000)"
fill="#000000" stroke="none">
<path d="M120 1850 c-7 -5 -16 -62 -25 -175 -10 -115 -27 -297 -40 -435 -3
-30 -7 -80 -10 -110 -3 -30 -7 -82 -10 -115 -3 -33 -8 -87 -11 -120 -3 -33 -7
-77 -10 -97 l-5 -38 166 0 165 0 1 38 c1 20 3 51 5 67 4 41 12 140 20 255 4
52 9 100 13 107 3 7 46 -93 95 -222 l89 -235 108 0 107 0 39 103 c22 56 62
159 88 230 27 70 52 127 57 127 4 0 9 -21 9 -47 1 -27 2 -52 3 -58 1 -5 5 -55
10 -110 4 -55 9 -116 11 -135 2 -19 5 -54 6 -77 l3 -43 163 0 164 0 -6 73 c-3
39 -8 88 -10 107 -2 19 -7 67 -10 105 -3 39 -8 90 -10 115 -3 25 -7 74 -10
110 -3 36 -7 81 -10 100 -2 19 -7 69 -10 110 -3 41 -8 95 -10 120 -3 25 -8 77
-11 115 -11 120 -12 126 -16 131 -4 4 -141 6 -261 5 -47 -1 -48 -2 -68 -48
-12 -27 -22 -52 -23 -58 -2 -5 -8 -23 -15 -40 -7 -16 -28 -70 -48 -120 -19
-49 -43 -108 -52 -130 -10 -22 -33 -79 -52 -127 -18 -48 -36 -84 -40 -80 -4 4
-60 140 -125 302 -64 162 -118 296 -119 298 -4 5 -297 7 -305 2z"/>
<path d="M1479 1828 c-1 -30 -1 -1039 0 -1056 1 -10 37 -12 164 -10 l162 3 0
163 c0 103 3 162 10 163 5 0 69 2 140 4 72 1 150 8 175 15 160 43 258 167 264
335 8 195 -90 336 -271 394 -19 6 -159 10 -338 11 l-305 1 -1 -23z m555 -286
c50 -53 41 -142 -17 -174 -25 -13 -206 -19 -208 -6 -1 4 -2 53 -3 108 l-1 100
101 0 c97 0 101 -1 128 -28z"/>
<path d="M2295 1036 c-66 -30 -101 -80 -104 -149 -7 -149 204 -227 316 -117
37 36 56 86 49 127 -2 15 -5 33 -5 40 -2 22 -63 84 -99 98 -43 18 -117 19
-157 1z"/>
</g>
</svg>
